<?xml version="1.0" encoding="utf-8"?>
<!-- Generator: Adobe Illustrator 26.4.1, SVG Export Plug-In . SVG Version: 6.00 Build 0)  -->
<svg version="1.1" id="图层_1" xmlns="http://www.w3.org/2000/svg" xmlns:xlink="http://www.w3.org/1999/xlink" x="0px" y="0px"
	 viewBox="0 0 1252 1252" style="enable-background:new 0 0 1252 1252;" xml:space="preserve">
<style type="text/css">
	.st0{fill:#70C6BE;}
	.st1{fill:#1BA0D8;}
</style>
<g>
	<path class="st0" d="M1206.7,558.9c-13.9-1.2-27.2-0.4-40.4-0.4c-81.3-0.2-162.6,0.1-243.9,0.1c-97.3,0-194.5,0-291.8,0
		c-5.2,0-10,0.2-14.5,3.7c-20.6,16.1-41.3,32-62.1,47.8c-25,19.1-50.4,37.9-75.2,57.3c-10.2,8-21.8,14.5-30.3,27H704
		c-9.8,67.2-84.1,171.5-204.5,192.3c-107.3,18.6-224-15.5-288.4-139.1c-49.7-95.3-38.4-226.6,51.6-312.9
		c41.8-40,90.9-65.9,148.8-71.7c85.9-8.6,162.8,11.9,224.6,76.3c37.2-26.8,73.2-52.7,109.6-79c-39.2-71-201.7-161.8-371.5-132.2
		C203.1,258.2,38.1,427.8,45.6,626.7c-8.3,192.2,160,388.5,371,401.7c88.6,5.6,171.3-11.9,246-60.3C761.9,903.7,823,813,844.9,694.3
		h361.8V558.9z"/>
	<path class="st1" d="M1206.7,222.7l-500.5,0.3c5.2,8,10.4,11.1,14.9,14.8c15.3,12.6,32.2,23.1,46.3,37
		c22.7,22.4,42.6,47.3,59.5,74.3c6.2,10,13.8,13.3,25.2,13.1c34.6-0.6,69.2-0.2,103.8-0.2c81.8,0,163.7,0,245.5,0
		c1.7,0,3.5,0.1,5.2,0.1V222.7z"/>
	<path class="st1" d="M937.7,891.9c-28.2,0.2-56.4,0.5-84.7,1c-5.2,0.1-10.1-0.1-13.6,5.1c-8.4,12.5-17.5,24.4-27.5,35.6
		c-28.5,31.9-58.2,62.4-93.8,86.6c-2.7,1.8-6.5,3.2-6.8,8h226.4V891.9z"/>
</g>
</svg>
