<?xml version="1.0" encoding="utf-8"?>
<!-- Generator: Adobe Illustrator 26.4.1, SVG Export Plug-In . SVG Version: 6.00 Build 0)  -->
<svg version="1.1" id="图层_1" xmlns="http://www.w3.org/2000/svg" xmlns:xlink="http://www.w3.org/1999/xlink" x="0px" y="0px"
	 viewBox="0 0 1252 1252" style="enable-background:new 0 0 1252 1252;" xml:space="preserve">
<style type="text/css">
	.st0{fill:#70C6BE;}
	.st1{fill:#1BA0D8;}
</style>
<path class="st0" d="M1117.56,469.18l-105.15-105.15c29.14,70.16,39.28,147.91,27.4,224.88c-1.43,9.34-3.17,18.69-5.23,27.87
	c50.68,76.17,50.68,176.1,0,252.43c-3.8,6.02-8.08,11.72-12.67,17.42c-4.28,5.23-8.71,10.29-13.46,15.2
	c-0.95,1.11-1.9,2.06-2.85,3.01c-41.81,41.97-96.13,64.14-151.24,66.51c-3.64,0.16-7.28,0.32-10.93,0.32c-1.58,0-3.17,0-4.75-0.16
	c-5.38,0-10.61-0.32-15.84-0.79c-25.66-2.38-50.99-9.03-74.91-19.95L809.7,889c-1.27-3.64-2.85-7.28-4.43-10.77
	c-9.82-21.22-23.28-40.38-39.75-56.85l-56.06-56.06L626,848.78L464.15,686.93c-39.12-39.12-61.29-89.16-65.88-140.63
	c-48.94,2.22-94.86,22.65-129.38,57.17c-0.48,0.47-0.79,0.79-1.27,1.27l-15.84,18.53c16.47,64.45,50.04,125.27,100.4,175.63
	l151.87,151.87c-30.25,13.94-63.03,20.9-95.81,20.9c-58.6,0-117.19-22.33-161.85-66.83c-78.07-78.07-87.89-198.59-29.61-287.12
	l-4.43-28.66c-9.82-62.71-5.07-126.85,13.62-187.66c-32.94,17.42-63.82,40.07-91.53,67.78c-151.08,150.92-151.08,396.55,0,547.63
	c75.54,75.38,174.52,113.07,273.65,113.07c19.8,0,39.59-1.43,59.07-4.43c55.9-8.39,110.38-29.14,158.84-62.24
	c48.46,33.1,102.94,53.84,158.84,62.24c19.64,3.01,39.43,4.59,59.23,4.59c48.3,0,96.6-9.03,142.05-26.92
	c47.99-18.85,92.8-47.67,131.44-86.31C1268.65,865.72,1268.65,620.1,1117.56,469.18z"/>
<path class="st1" d="M246.4,581.14c41.81-41.97,96.13-64.14,151.24-66.51c3.8-0.16,7.44-0.32,11.08-0.32c1.58,0,3.17,0,4.75,0.16
	c5.38,0,10.61,0.32,15.84,0.79c51.47,4.59,101.51,26.76,140.63,65.88l139.52,139.52l11.24,11.24l11.09,11.09l56.06,55.9
	c19.64,19.64,35,42.13,46.08,66.04c2.37,5.23,4.59,10.61,6.49,15.99c2.22,5.54,3.96,11.09,5.54,16.79
	c3.96,13.78,6.49,27.71,7.76,41.97c49.09-2.22,95.02-22.65,129.54-57.17c0.47-0.48,0.79-0.79,1.27-1.27l0.63-0.79l0.63-0.63
	c5.23-5.54,10.14-11.24,14.73-17.1c-10.93-41.97-28.98-82.67-54.48-119.72c25.34-37.06,43.55-77.76,54.32-119.88
	c1.74-6.49,3.33-12.99,4.59-19.48c1.43-6.49,2.53-12.99,3.48-19.48c18.05-117.67-18.21-242.3-108.64-332.73
	C824.43,175.88,725.3,138.04,626,138.04c-99.14,0-198.27,37.85-273.81,113.39c-27.24,27.24-49.57,57.49-66.83,89.79
	c-3.96,6.97-7.44,14.09-10.61,21.22c-3.33,6.81-6.18,13.62-8.87,20.43c-25.18,64.3-32.78,133.98-22.33,201.28
	C244.5,583.04,245.45,582.09,246.4,581.14z M626.16,296.4c58.6,0,117.03,22.33,161.69,66.99c69.52,69.52,84.88,173.09,46.08,257.66
	L682.06,469.18c-60.5-60.49-136.19-96.76-214.9-108.64C511.5,317.78,568.83,296.4,626.16,296.4z"/>
</svg>
