<?xml version="1.0" encoding="utf-8"?>
<!-- Generator: Adobe Illustrator 26.4.1, SVG Export Plug-In . SVG Version: 6.00 Build 0)  -->
<svg version="1.1" id="图层_1" xmlns="http://www.w3.org/2000/svg" xmlns:xlink="http://www.w3.org/1999/xlink" x="0px" y="0px"
	 viewBox="0 0 1435 183" style="enable-background:new 0 0 1435 183;" xml:space="preserve">
<style type="text/css">
	.st0{fill:#070707;}
	.st1{font-family:'YouSheBiaoTiHei';}
	.st2{font-size:124.9839px;}
	.st3{font-family:'DIN-RegularItalic';}
	.st4{font-size:44.2352px;}
</style>
<g>
	<path class="st0" d="M201.95,60.99l-19.37-19.37c5.37,12.92,7.23,27.24,5.05,41.42c-0.26,1.72-0.58,3.44-0.96,5.13
		c9.33,14.03,9.33,32.44,0,46.5c-0.7,1.11-1.49,2.16-2.33,3.21c-0.79,0.96-1.6,1.9-2.48,2.8c-0.18,0.2-0.35,0.38-0.53,0.55
		c-7.7,7.73-17.71,11.81-27.86,12.25c-0.67,0.03-1.34,0.06-2.01,0.06c-0.29,0-0.58,0-0.88-0.03c-0.99,0-1.95-0.06-2.92-0.15
		c-4.73-0.44-9.39-1.66-13.8-3.68l11.38-11.38c-0.23-0.67-0.53-1.34-0.82-1.98c-1.81-3.91-4.29-7.44-7.32-10.47l-10.33-10.33
		l-15.37,15.37L81.6,101.1c-7.2-7.2-11.29-16.42-12.13-25.9c-9.01,0.41-17.47,4.17-23.83,10.53c-0.09,0.09-0.15,0.15-0.23,0.23
		l-2.92,3.41c3.03,11.87,9.22,23.07,18.49,32.35l27.97,27.97c-5.57,2.57-11.61,3.85-17.65,3.85c-10.79,0-21.59-4.11-29.81-12.31
		c-14.38-14.38-16.19-36.58-5.45-52.88l-0.82-5.28c-1.81-11.55-0.93-23.36,2.51-34.57c-6.07,3.21-11.76,7.38-16.86,12.48
		c-27.83,27.8-27.83,73.04,0,100.87c13.91,13.88,32.14,20.83,50.4,20.83c3.65,0,7.29-0.26,10.88-0.82
		c10.3-1.55,20.33-5.37,29.26-11.46c8.93,6.1,18.96,9.92,29.26,11.46c3.62,0.55,7.26,0.85,10.91,0.85c8.9,0,17.79-1.66,26.16-4.96
		c8.84-3.47,17.09-8.78,24.21-15.9C229.78,134.03,229.78,88.79,201.95,60.99z"/>
	<path class="st0" d="M41.49,81.62c7.7-7.73,17.71-11.81,27.86-12.25c0.7-0.03,1.37-0.06,2.04-0.06c0.29,0,0.58,0,0.88,0.03
		c0.99,0,1.95,0.06,2.92,0.15c9.48,0.85,18.7,4.93,25.9,12.13l25.7,25.7l2.07,2.07l2.04,2.04l10.33,10.3
		c3.62,3.62,6.45,7.76,8.49,12.16c0.44,0.96,0.85,1.95,1.2,2.95c0.41,1.02,0.73,2.04,1.02,3.09c0.73,2.54,1.2,5.1,1.43,7.73
		c9.04-0.41,17.5-4.17,23.86-10.53c0.09-0.09,0.15-0.15,0.23-0.23l0.12-0.15l0.12-0.12c0.96-1.02,1.87-2.07,2.71-3.15
		c-2.01-7.73-5.34-15.23-10.03-22.05c4.67-6.83,8.02-14.32,10.01-22.08c0.32-1.2,0.61-2.39,0.85-3.59c0.26-1.2,0.47-2.39,0.64-3.59
		c3.33-21.67-3.35-44.63-20.01-61.28C147.96,6.97,129.7,0,111.41,0C93.15,0,74.89,6.97,60.98,20.89
		c-5.02,5.02-9.13,10.59-12.31,16.54c-0.73,1.28-1.37,2.6-1.95,3.91c-0.61,1.25-1.14,2.51-1.63,3.76
		c-4.64,11.84-6.04,24.68-4.11,37.07C41.14,81.97,41.32,81.79,41.49,81.62z M111.44,29.17c10.79,0,21.56,4.11,29.78,12.34
		c12.81,12.81,15.63,31.88,8.49,47.46l-27.97-27.97C110.6,49.85,96.65,43.17,82.16,40.98C90.32,33.11,100.88,29.17,111.44,29.17z"/>
</g>
<text transform="matrix(1 0 0 1 287.7432 124.806)" class="st0 st1 st2">滨湖区朴物贸易工作室</text>
<text transform="matrix(1 0 0 1 438.825 171.4053)" class="st0 st3 st4">BINHU DISTRICT PARK TRADE STUDIO</text>
</svg>
